<?xml version="1.0" encoding="UTF-8"?>
<svg version="1.1" xmlns="http://www.w3.org/2000/svg" width="500" height="500">
<path d="M0 0 C1.69535003 2.38398948 3.2662201 4.77087882 4.8125 7.25 C5.79360665 8.79859807 6.77540842 10.34675592 7.7578125 11.89453125 C8.27891602 12.71904785 8.80001953 13.54356445 9.33691406 14.39306641 C11.07353724 17.11527167 12.84055661 19.81547033 14.6171875 22.51171875 C15.50893677 23.86765137 15.50893677 23.86765137 16.41870117 25.25097656 C17.58796163 27.02689679 18.75995472 28.80102119 19.93481445 30.57324219 C20.46550537 31.3830957 20.99619629 32.19294922 21.54296875 33.02734375 C22.01758545 33.74656006 22.49220215 34.46577637 22.98120117 35.20678711 C24 37 24 37 24 39 C24.515625 39.0825 25.03125 39.165 25.5625 39.25 C35.22493511 42.22305696 44.08641382 50.28955178 49 59 C53.31236144 57.56254619 54.39976892 54.27764336 56.5 50.5 C60.59459459 43.13513514 60.59459459 43.13513514 64 42 C71.94570178 53.18186509 79.54095835 64.570572 86.75268555 76.23803711 C91.61301615 84.05869166 96.69118433 91.7386344 101.76000977 99.42504883 C103.85339638 102.60825735 105.93222261 105.80009764 108 109 C108.57421692 109.88730804 108.57421692 109.88730804 109.16003418 110.7925415 C110.31153794 112.58108667 111.45047576 114.37701897 112.5859375 116.17578125 C113.26446777 117.24352783 113.94299805 118.31127441 114.64208984 119.41137695 C115.0902002 120.26562256 115.53831055 121.11986816 116 122 C115.67 122.66 115.34 123.32 115 124 C95.80546684 126.6736366 95.80546684 126.6736366 89.9921875 122.58935547 C86.51682106 118.69530811 84.33003125 114.07846015 82.14746094 109.37353516 C80.33342159 105.62117547 78.07027316 102.18404002 75.8125 98.6875 C74.99717766 97.37724686 74.18334401 96.06606605 73.37109375 94.75390625 C70.50273067 90.17136319 67.46682749 85.70879718 64.3984375 81.2578125 C63 79 63 79 63 77 C62.34 77 61.68 77 61 77 C58.6319434 81.58810966 58.29017523 85.95006059 59 91 C60.30112773 94.1942826 62.08426507 96.95346057 64 99.8125 C64.49604736 100.58859619 64.99209473 101.36469238 65.50317383 102.16430664 C69.09729892 107.75600376 72.81829098 113.27415809 76.63671875 118.71484375 C78 121 78 121 78 124 C74.22942453 124.11597653 70.45930607 124.18717396 66.6875 124.25 C65.61564453 124.28351563 64.54378906 124.31703125 63.43945312 124.3515625 C61.89741211 124.37089844 61.89741211 124.37089844 60.32421875 124.390625 C58.9024231 124.4220459 58.9024231 124.4220459 57.4519043 124.45410156 C55 124 55 124 53.16723633 121.97558594 C52.58945435 120.9976709 52.58945435 120.9976709 52 120 C51.37351562 120.9384375 50.74703125 121.876875 50.1015625 122.84375 C49.2763988 124.06274183 48.45085847 125.28147876 47.625 126.5 C47.2125 127.12003906 46.8 127.74007812 46.375 128.37890625 C45.30100332 129.95525621 44.15511468 131.48208757 43 133 C42.34 133 41.68 133 41 133 C41 133.66 41 134.32 41 135 C28.97016088 146.20096752 12.59499041 152.68549483 -3.88671875 152.3125 C-23.33420501 150.36043112 -38.069576 141.60932235 -50.66015625 126.796875 C-52.25492773 124.65811441 -53.27737791 122.569323 -54 120 C-54.66 120 -55.32 120 -56 120 C-56.66 121.32 -57.32 122.64 -58 124 C-65.59 124 -73.18 124 -81 124 C-80.13206553 119.66032766 -79.79733099 118.27469968 -77.4375 114.9375 C-76.90382812 114.16792969 -76.37015625 113.39835937 -75.8203125 112.60546875 C-75.21960938 111.74566406 -74.61890625 110.88585937 -74 110 C-72.59922723 107.91998459 -71.20352933 105.836544 -69.8125 103.75 C-68.83216797 102.28820312 -68.83216797 102.28820312 -67.83203125 100.796875 C-67.22746094 99.87390625 -66.62289062 98.9509375 -66 98 C-65.19175781 96.87271484 -65.19175781 96.87271484 -64.3671875 95.72265625 C-62.42162354 91.84820459 -61.98880776 87.94105614 -61.3125 83.6875 C-58.01295487 65.44168198 -49.69675924 52.36413689 -34.515625 41.62890625 C-32 40 -32 40 -29.8359375 39.03515625 C-27.46618099 37.69901694 -26.68598742 36.23477735 -25.375 33.875 C-24.1484375 31.6796875 -24.1484375 31.6796875 -23 30 C-22.34 30 -21.68 30 -21 30 C-20.75894531 29.31679687 -20.51789063 28.63359375 -20.26953125 27.9296875 C-18.74929882 24.42145881 -16.77848583 21.30997657 -14.6875 18.125 C-14.28595703 17.50584717 -13.88441406 16.88669434 -13.47070312 16.2487793 C-11.38439369 13.04895698 -9.25315245 9.89819558 -7 6.8125 C-4.87645358 4.11614914 -4.87645358 4.11614914 -4 1 C-2 0 -2 0 0 0 Z " fill="#F8E7E7" transform="translate(252,175)"/>
<path d="M0 0 C1.71371574 2.42622838 3.30729305 4.8560292 4.875 7.375 C5.85655819 8.92804171 6.83968805 10.48009097 7.82421875 12.03125 C8.33903809 12.84335938 8.85385742 13.65546875 9.38427734 14.4921875 C11.01955483 17.03035165 12.69724512 19.5341828 14.39453125 22.03125 C14.94447754 22.84158691 15.49442383 23.65192383 16.06103516 24.48681641 C17.13257639 26.06019022 18.20896539 27.63027503 19.29052734 29.19677734 C19.77602051 29.9130127 20.26151367 30.62924805 20.76171875 31.3671875 C21.410802 32.31247314 21.410802 32.31247314 22.07299805 33.27685547 C23 35 23 35 23 38 C21.35 38 19.7 38 18 38 C17.505 38.99 17.505 38.99 17 40 C17 39.34 17 38.68 17 38 C15.02 38.66 13.04 39.32 11 40 C11 39.01 11 38.02 11 37 C10.34 37 9.68 37 9 37 C8.67 37.99 8.34 38.98 8 40 C6.02 38.68 4.04 37.36 2 36 C2 36.66 2 37.32 2 38 C1.12988281 38.20302734 1.12988281 38.20302734 0.2421875 38.41015625 C-8.81866908 40.90712498 -12.00406592 46.41996208 -17 54 C-17.98165594 55.01801357 -18.97591432 56.0246803 -20 57 C-20.495 57.99 -20.495 57.99 -21 59 C-19.68 59 -18.36 59 -17 59 C-15.54272461 60.33300781 -15.54272461 60.33300781 -14 62 C-12.46795111 62.93988191 -10.90230707 63.82602016 -9.31640625 64.671875 C-7.93352417 65.41606689 -7.93352417 65.41606689 -6.52270508 66.17529297 C-5.05740356 66.95477295 -5.05740356 66.95477295 -3.5625 67.75 C-1.55657677 68.82940167 0.44863812 69.91012081 2.453125 70.9921875 C3.41541016 71.51135742 4.37769531 72.03052734 5.36914062 72.56542969 C9.4283608 74.77886489 13.40564001 77.11517284 17.3828125 79.47265625 C21.11483435 81.65059736 24.91447053 83.69718317 28.72265625 85.73828125 C31 87 31 87 34 89 C33.94921875 91.2265625 33.94921875 91.2265625 33 94 C30.59708656 95.71075347 28.41135041 97.03849109 25.8125 98.375 C25.09433105 98.76147705 24.37616211 99.1479541 23.63623047 99.54614258 C17.88286793 102.61785309 12.03369306 105.50092476 6.18359375 108.3828125 C0.7962002 111.11947622 -4.47629297 114.08575963 -9.296875 117.7421875 C-13.14265254 120.61989 -15.82754644 122.48040633 -20.75 122.1875 C-25.05591253 121.35191208 -27.32263502 119.51404153 -30 116 C-30.33 115.01 -30.66 114.02 -31 113 C-32.32 113 -33.64 113 -35 113 C-35.33 111.35 -35.66 109.7 -36 108 C-36.66 108 -37.32 108 -38 108 C-38.33 106.35 -38.66 104.7 -39 103 C-41.31 102.67 -43.62 102.34 -46 102 C-46.226875 102.763125 -46.45375 103.52625 -46.6875 104.3125 C-48 107 -48 107 -50.5625 108.25 C-53.17816133 109.70894105 -53.17816133 109.70894105 -53.40625 112.0078125 C-53.50819291 113.55224764 -53.56374681 115.10064385 -53.56640625 116.6484375 C-54.23887284 120.29550857 -55.10565773 121.61519562 -58 124 C-61.93090876 124.62418675 -65.78276318 124.46878509 -69.75 124.3125 C-70.82894531 124.28994141 -71.90789062 124.26738281 -73.01953125 124.24414062 C-75.6810935 124.1852565 -78.33984228 124.10307001 -81 124 C-80.33958439 120.35100665 -79.58632789 117.97630566 -77.4375 114.9375 C-76.90382812 114.16792969 -76.37015625 113.39835937 -75.8203125 112.60546875 C-75.21960938 111.74566406 -74.61890625 110.88585937 -74 110 C-72.59922723 107.91998459 -71.20352933 105.836544 -69.8125 103.75 C-68.83216797 102.28820312 -68.83216797 102.28820312 -67.83203125 100.796875 C-67.22746094 99.87390625 -66.62289062 98.9509375 -66 98 C-65.19175781 96.87271484 -65.19175781 96.87271484 -64.3671875 95.72265625 C-62.42162354 91.84820459 -61.98880776 87.94105614 -61.3125 83.6875 C-58.01295487 65.44168198 -49.69675924 52.36413689 -34.515625 41.62890625 C-32 40 -32 40 -29.8359375 39.03515625 C-27.46618099 37.69901694 -26.68598742 36.23477735 -25.375 33.875 C-24.1484375 31.6796875 -24.1484375 31.6796875 -23 30 C-22.34 30 -21.68 30 -21 30 C-20.75894531 29.31679687 -20.51789063 28.63359375 -20.26953125 27.9296875 C-18.74929882 24.42145881 -16.77848583 21.30997657 -14.6875 18.125 C-14.28595703 17.50584717 -13.88441406 16.88669434 -13.47070312 16.2487793 C-11.38439369 13.04895698 -9.25315245 9.89819558 -7 6.8125 C-4.87645358 4.11614914 -4.87645358 4.11614914 -4 1 C-2 0 -2 0 0 0 Z " fill="#F1B9BA" transform="translate(252,175)"/>
<path d="M0 0 C3.439591 0.5329625 6.18592949 2.04275895 9.21875 3.6953125 C10.22784424 4.2430835 11.23693848 4.79085449 12.27661133 5.35522461 C13.34032959 5.93925049 14.40404785 6.52327637 15.5 7.125 C17.12941528 8.01360718 17.12941528 8.01360718 18.79174805 8.92016602 C25.07050933 12.35587477 31.30132768 15.84949516 37.453125 19.5078125 C41.15888289 21.6789774 44.93750908 23.7095313 48.72265625 25.73828125 C51 27 51 27 54 29 C53.94921875 31.2265625 53.94921875 31.2265625 53 34 C50.59708656 35.71075347 48.41135041 37.03849109 45.8125 38.375 C45.09433105 38.76147705 44.37616211 39.1479541 43.63623047 39.54614258 C37.88241694 42.61809387 32.03418715 45.50475846 26.1796875 48.37890625 C22.46297454 50.27379062 18.93593474 52.39700046 15.3828125 54.578125 C4.62087912 61 4.62087912 61 -1 61 C-1.02312792 53.19424805 -1.04091738 45.38850405 -1.05181217 37.58272648 C-1.05704002 33.9585404 -1.06413587 30.3343777 -1.07543945 26.71020508 C-1.08627184 23.21540025 -1.09227758 19.72061796 -1.09487724 16.22579765 C-1.09763551 14.23760611 -1.10544688 12.24942369 -1.11329651 10.26124573 C-1.11337204 9.06007614 -1.11344757 7.85890656 -1.11352539 6.62133789 C-1.115746 5.55766495 -1.11796661 4.493992 -1.12025452 3.39808655 C-1 1 -1 1 0 0 Z " fill="#D51E23" transform="translate(232,235)"/>
<path d="M0 0 C3.41977828 3.1632949 5.96853444 6.68324443 8.5 10.5625 C8.93376953 11.21959961 9.36753906 11.87669922 9.81445312 12.55371094 C13.6166349 18.34351975 17.28784328 24.21409698 20.96142578 30.0859375 C26.36196056 38.66676826 32.01511804 47.07889864 37.68164062 55.48535156 C43.22507783 63.73701425 48.73666279 71.99962144 53 81 C49.96080638 84.03919362 41.96669009 83.10288241 37.92895508 83.20898438 C30.34573923 82.95051238 30.34573923 82.95051238 26.99658203 80.58496094 C23.51913617 76.69080937 21.33062389 72.0797377 19.14746094 67.37353516 C17.33342159 63.62117547 15.07027316 60.18404002 12.8125 56.6875 C11.99717766 55.37724686 11.18334401 54.06606605 10.37109375 52.75390625 C7.50273067 48.17136319 4.46682749 43.70879718 1.3984375 39.2578125 C0 37 0 37 0 35 C-1.98 35.495 -1.98 35.495 -4 36 C-13.13603292 24.35081887 -13.13603292 24.35081887 -12.875 19.83984375 C-11.604623 15.71678981 -9.380439 12.36507457 -7.0625 8.75 C-6.60681641 8.0178125 -6.15113281 7.285625 -5.68164062 6.53125 C-2.26855535 1.13427767 -2.26855535 1.13427767 0 0 Z " fill="#CC232A" transform="translate(315,217)"/>
<path d="M0 0 C2.44454666 0.37790878 3.69347201 0.66457157 5.38793945 2.51879883 C6.70958626 4.60936547 8.02746946 6.69913322 9.3125 8.8125 C9.77978516 9.53759766 10.24707031 10.26269531 10.72851562 11.00976562 C11.16486328 11.71423828 11.60121094 12.41871094 12.05078125 13.14453125 C12.44950439 13.78753174 12.84822754 14.43053223 13.2590332 15.09301758 C14.19611537 17.50473052 13.89321343 18.60471603 13 21 C11.92802076 22.84435402 10.79688235 24.65495322 9.625 26.4375 C7.80970309 29.21451804 6.02515345 31.95527593 4.3984375 34.84765625 C3.93695313 35.55792969 3.47546875 36.26820313 3 37 C2.34 37 1.68 37 1 37 C0.89800293 37.5681543 0.79600586 38.13630859 0.69091797 38.72167969 C-0.13145884 41.433489 -1.37440232 43.17215585 -3.0546875 45.453125 C-8.08986205 52.45970276 -12.62410081 59.77193418 -17.21484375 67.07421875 C-18.54195894 69.16766049 -19.88435954 71.25151802 -21.24438477 73.32373047 C-22.26987993 74.88700095 -23.27070736 76.46802854 -24.20678711 78.08642578 C-25.28515625 79.7421875 -25.28515625 79.7421875 -28 82 C-31.80501655 82.69624354 -35.46156851 82.567177 -39.3125 82.375 C-40.33923828 82.34792969 -41.36597656 82.32085937 -42.42382812 82.29296875 C-44.95137576 82.22243254 -47.47460043 82.12393429 -50 82 C-51 79 -51 79 -50.11401367 77.06835938 C-49.63681885 76.33423828 -49.15962402 75.60011719 -48.66796875 74.84375 C-48.125354 73.99917236 -47.58273926 73.15459473 -47.02368164 72.28442383 C-46.4177417 71.36556396 -45.81180176 70.4467041 -45.1875 69.5 C-44.25635376 68.0627356 -44.25635376 68.0627356 -43.30639648 66.59643555 C-37.38740408 57.49639399 -31.36074422 48.46427125 -25.30737305 39.453125 C-21.33767748 33.53795384 -17.43425567 27.59106037 -13.62768555 21.56958008 C-10.67844208 16.91369475 -7.66336339 12.30027888 -4.65625 7.68164062 C-4.19476563 6.97072266 -3.73328125 6.25980469 -3.2578125 5.52734375 C-2.8467627 4.89562256 -2.43571289 4.26390137 -2.01220703 3.61303711 C-0.94385015 1.96820714 -0.94385015 1.96820714 0 0 Z " fill="#CC2229" transform="translate(184,217)"/>
<path d="M0 0 C1.71371574 2.42622838 3.30729305 4.8560292 4.875 7.375 C5.85655819 8.92804171 6.83968805 10.48009097 7.82421875 12.03125 C8.33903809 12.84335938 8.85385742 13.65546875 9.38427734 14.4921875 C11.01955483 17.03035165 12.69724512 19.5341828 14.39453125 22.03125 C14.94447754 22.84158691 15.49442383 23.65192383 16.06103516 24.48681641 C17.13257639 26.06019022 18.20896539 27.63027503 19.29052734 29.19677734 C19.77602051 29.9130127 20.26151367 30.62924805 20.76171875 31.3671875 C21.410802 32.31247314 21.410802 32.31247314 22.07299805 33.27685547 C23 35 23 35 23 38 C22.25621094 37.7834375 21.51242187 37.566875 20.74609375 37.34375 C5.88583267 33.55412025 -11.39696357 32.72406426 -26 38 C-25.01 35.36 -24.02 32.72 -23 30 C-22.34 30 -21.68 30 -21 30 C-20.75894531 29.31679687 -20.51789063 28.63359375 -20.26953125 27.9296875 C-18.74929882 24.42145881 -16.77848583 21.30997657 -14.6875 18.125 C-14.28595703 17.50584717 -13.88441406 16.88669434 -13.47070312 16.2487793 C-11.38439369 13.04895698 -9.25315245 9.89819558 -7 6.8125 C-4.87645358 4.11614914 -4.87645358 4.11614914 -4 1 C-2 0 -2 0 0 0 Z " fill="#C32026" transform="translate(252,175)"/>
<path d="M0 0 C0.66 0.66 1.32 1.32 2 2 C1.525625 2.886875 1.05125 3.77375 0.5625 4.6875 C-1.08210662 7.79014349 -1.08210662 7.79014349 -1.4375 10.5625 C-2.19010359 13.8237822 -3.86755466 15.40648539 -6 18 C-6.93763039 19.50799902 -7.85191666 21.03061942 -8.75 22.5625 C-11.70708384 27.59104359 -14.92355645 32.41145302 -18.19140625 37.2421875 C-19.60820596 39.40257756 -20.86900644 41.52795868 -22.0625 43.8125 C-24.46437675 47.76397465 -27.30784967 51.18163003 -31 54 C-31.99 54 -32.98 54 -34 54 C-32.80085748 39.8966522 -29.66251771 28.52025551 -21 17 C-20.56171875 16.39671875 -20.1234375 15.7934375 -19.671875 15.171875 C-14.59926864 8.69992895 -7.44781934 3.44417936 0 0 Z " fill="#F4E0DE" transform="translate(224,213)"/>
<path d="M0 0 C3.73349817 1.24449939 4.17113557 2.40796999 6.21484375 5.69921875 C6.81876953 6.66150391 7.42269531 7.62378906 8.04492188 8.61523438 C8.66947266 9.62908203 9.29402344 10.64292969 9.9375 11.6875 C11.17532944 13.67085496 12.41359887 15.65393541 13.65234375 17.63671875 C14.23097168 18.57177246 14.80959961 19.50682617 15.40576172 20.47021484 C16.70313584 22.52892705 18.04391977 24.52883606 19.44140625 26.51953125 C21 29 21 29 21 32 C17.22942453 32.11597653 13.45930607 32.18717396 9.6875 32.25 C8.61564453 32.28351563 7.54378906 32.31703125 6.43945312 32.3515625 C5.41142578 32.36445313 4.38339844 32.37734375 3.32421875 32.390625 C2.37635498 32.41157227 1.42849121 32.43251953 0.4519043 32.45410156 C-2 32 -2 32 -3.80932617 30.14355469 C-5.47436516 27.14600653 -5.38677962 25.41655331 -5 22 C-4.32493051 19.86227995 -3.56252118 17.76457284 -2.80078125 15.65625 C-1.26494108 10.56175577 -0.6916409 5.26460783 0 0 Z " fill="#C21E25" transform="translate(309,267)"/>
<path d="M0 0 C0.66 0 1.32 0 2 0 C2.02578125 0.73863281 2.0515625 1.47726562 2.078125 2.23828125 C2.39124742 7.83890275 3.02038125 12.58723966 5.125 17.8125 C6.98245094 22.46958714 7.43493009 25.1827347 6 30 C4 32 4 32 1.66162109 32.22705078 C0.70852051 32.21657715 -0.24458008 32.20610352 -1.2265625 32.1953125 C-2.7734375 32.18564453 -2.7734375 32.18564453 -4.3515625 32.17578125 C-5.43179688 32.15902344 -6.51203125 32.14226562 -7.625 32.125 C-8.71296875 32.11597656 -9.8009375 32.10695313 -10.921875 32.09765625 C-13.61480152 32.07403409 -16.30729255 32.04109556 -19 32 C-18.33958439 28.35100665 -17.58632789 25.97630566 -15.4375 22.9375 C-14.90253906 22.16664063 -14.36757812 21.39578125 -13.81640625 20.6015625 C-12.91728516 19.31378906 -12.91728516 19.31378906 -12 18 C-10.62072645 15.94035543 -9.24585805 13.8777553 -7.875 11.8125 C-6.58333333 9.875 -5.29166667 7.9375 -4 6 C-3.30132812 4.89011719 -2.60265625 3.78023438 -1.8828125 2.63671875 C-1.26148438 1.76660156 -0.64015625 0.89648438 0 0 Z " fill="#BD1B23" transform="translate(190,267)"/>
<path d="M0 0 C0.66 0.33 1.32 0.66 2 1 C2 2.32 2 3.64 2 5 C2.639375 5.226875 3.27875 5.45375 3.9375 5.6875 C6 7 6 7 6.5625 9.5 C6.706875 10.325 6.85125 11.15 7 12 C7.99 12.66 8.98 13.32 10 14 C10.76045884 19.97503374 10.76045884 19.97503374 8.5625 22.9375 C2.41191157 25.48774398 -3.90622706 24.07447589 -10 22 C-10 21.01 -10 20.02 -10 19 C-10.66 19 -11.32 19 -12 19 C-12.66 17.35 -13.32 15.7 -14 14 C-16.97 14 -19.94 14 -23 14 C-21.32347418 10.64694836 -17.58215126 9.68308005 -14.3125 8.125 C-9.27367521 5.71333318 -4.57651508 3.21437122 0 0 Z " fill="#F1BFC0" transform="translate(277,272)"/>
<path d="M0 0 C0.99 0.33 1.98 0.66 3 1 C2.566875 1.8353125 2.566875 1.8353125 2.125 2.6875 C0.948203 4.97846462 0.948203 4.97846462 0.1875 7.4375 C-1 10 -1 10 -3.3125 12.25 C-6.25879337 15.26481182 -7.86090765 18.22770953 -9.8046875 21.92578125 C-11.20810643 24.36112587 -12.9871089 26.05651894 -15 28 C-15.69313908 29.65583225 -16.36474424 31.32110979 -17 33 C-17.99 33.495 -17.99 33.495 -19 34 C-19.28875 34.66 -19.5775 35.32 -19.875 36 C-21 38 -21 38 -23.125 38.75 C-23.74375 38.8325 -24.3625 38.915 -25 39 C-25.43566966 33.00954212 -24.20892185 29.29205217 -21.5 24.125 C-21.1383374 23.42318604 -20.7766748 22.72137207 -20.40405273 21.99829102 C-15.6868162 13.15768889 -8.84812411 4.9912495 0 0 Z " fill="#F9F0EF" transform="translate(218,216)"/>
<path d="M0 0 C5.82965529 0.87864618 11.09503396 4.66437493 16.1875 7.4375 C17.86489258 8.3356543 17.86489258 8.3356543 19.57617188 9.25195312 C20.63771484 9.82751953 21.69925781 10.40308594 22.79296875 10.99609375 C24.25512817 11.78777954 24.25512817 11.78777954 25.74682617 12.59545898 C28 14 28 14 29 16 C26.525 15.505 26.525 15.505 24 15 C24 14.34 24 13.68 24 13 C23.31550781 12.89816406 22.63101563 12.79632813 21.92578125 12.69140625 C18.41730374 11.86230008 15.44244474 10.4827768 12.1875 8.9375 C11.02605469 8.38964844 9.86460937 7.84179688 8.66796875 7.27734375 C7.34732422 6.64505859 7.34732422 6.64505859 6 6 C6 5.34 6 4.68 6 4 C4.68 3.67 3.36 3.34 2 3 C1.67 21.48 1.34 39.96 1 59 C3.97 58.505 3.97 58.505 7 58 C7 57.01 7 56.02 7 55 C9.97 54.505 9.97 54.505 13 54 C13 53.34 13 52.68 13 52 C14.43429001 51.32645501 15.87257057 50.66140299 17.3125 50 C18.11300781 49.62875 18.91351563 49.2575 19.73828125 48.875 C22 48 22 48 25 48 C25 47.34 25 46.68 25 46 C25.99 46 26.98 46 28 46 C28 45.34 28 44.68 28 44 C29.65 44 31.3 44 33 44 C24.13538174 50.84534303 10.45266463 61 -1 61 C-1.02312792 53.19424805 -1.04091738 45.38850405 -1.05181217 37.58272648 C-1.05704002 33.9585404 -1.06413587 30.3343777 -1.07543945 26.71020508 C-1.08627184 23.21540025 -1.09227758 19.72061796 -1.09487724 16.22579765 C-1.09763551 14.23760611 -1.10544688 12.24942369 -1.11329651 10.26124573 C-1.11337204 9.06007614 -1.11344757 7.85890656 -1.11352539 6.62133789 C-1.115746 5.55766495 -1.11796661 4.493992 -1.12025452 3.39808655 C-1 1 -1 1 0 0 Z " fill="#BC343A" transform="translate(232,235)"/>
<path d="M0 0 C1.32 1.32 2.64 2.64 4 4 C3.34 4.66 2.68 5.32 2 6 C1.01 5.67 0.02 5.34 -1 5 C-1.144375 5.7425 -1.28875 6.485 -1.4375 7.25 C-1.75856206 8.81963672 -2.09966139 10.38618789 -2.5 11.9375 C-3.51305577 16.11635505 -4.46506926 20.08804861 -3.4375 24.3125 C-2.96833554 27.19451022 -3.27834129 29.19354945 -4 32 C-2.68 32 -1.36 32 0 32 C0 32.66 0 33.32 0 34 C1.32 34.66 2.64 35.32 4 36 C4 37.65 4 39.3 4 41 C2.62437146 39.71034824 1.29233607 38.37310707 0 37 C0 36.34 0 35.68 0 35 C-1.98 35.495 -1.98 35.495 -4 36 C-13.13603292 24.35081887 -13.13603292 24.35081887 -12.875 19.83984375 C-11.604623 15.71678981 -9.380439 12.36507457 -7.0625 8.75 C-6.60681641 8.0178125 -6.15113281 7.285625 -5.68164062 6.53125 C-2.26855535 1.13427767 -2.26855535 1.13427767 0 0 Z " fill="#B51C22" transform="translate(315,217)"/>
<path d="M0 0 C3.20635679 0.23952411 4.72364207 0.75899596 7.16796875 2.890625 C7.83441406 3.66921875 8.50085938 4.4478125 9.1875 5.25 C9.86167969 6.01828125 10.53585937 6.7865625 11.23046875 7.578125 C14.10194992 11.50818753 15.10547042 13.92771744 14.625 18.8125 C14.41875 19.864375 14.2125 20.91625 14 22 C11.0625 21.625 11.0625 21.625 8 21 C7.67 20.34 7.34 19.68 7 19 C6.34 19 5.68 19 5 19 C3.64560332 16.29120665 3.93498549 13.99066732 4 11 C3.34 11 2.68 11 2 11 C1.67 11.66 1.34 12.32 1 13 C-1.60585556 9.09121666 -1.22321871 5.53878034 -1 1 C-0.67 0.67 -0.34 0.34 0 0 Z " fill="#F8F0EE" transform="translate(286,221)"/>
<path d="M0 0 C3.89941749 1.29980583 4.53257489 2.93254102 6.6875 6.375 C7.31011719 7.35210937 7.93273437 8.32921875 8.57421875 9.3359375 C10 12 10 12 10 15 C9.01 15 8.02 15 7 15 C6.34 14.01 5.68 13.02 5 12 C4.01 11.67 3.02 11.34 2 11 C2 11.66 2 12.32 2 13 C2.99 13.33 3.98 13.66 5 14 C4.67 15.65 4.34 17.3 4 19 C3.01 19.33 2.02 19.66 1 20 C-0.04214691 24.61507774 -0.04214691 24.61507774 1 29 C3.32156597 29.40729228 5.6568787 29.74438677 8 30 C8 30.33 8 30.66 8 31 C6.56260487 31.02712066 5.12506137 31.04645067 3.6875 31.0625 C2.48673828 31.07990234 2.48673828 31.07990234 1.26171875 31.09765625 C-1 31 -1 31 -4 30 C-5.64195707 26.71608587 -5.48424719 23.55965328 -4.3984375 20.0625 C-4.14320313 19.36125 -3.88796875 18.66 -3.625 17.9375 C-1.52194315 12.11671705 -0.8030787 6.11284613 0 0 Z " fill="#A91C25" transform="translate(309,267)"/>
<path d="M0 0 C0.5775 0.7425 1.155 1.485 1.75 2.25 C3.72253526 4.66087643 5.76044282 6.84042701 8 9 C7.01 10.485 7.01 10.485 6 12 C5.75849227 14.51584891 5.75849227 14.51584891 5.875 17.1875 C5.90207031 18.53908203 5.90207031 18.53908203 5.9296875 19.91796875 C5.95289063 20.60503906 5.97609375 21.29210937 6 22 C5.34 22 4.68 22 4 22 C3.97421875 22.77601563 3.9484375 23.55203125 3.921875 24.3515625 C3.46210993 33.10799717 1.68489725 40.67057458 -1 49 C-1.33 49 -1.66 49 -2 49 C-3.10705182 44.06858733 -2.94635417 41.58020833 -0.703125 37.09375 C0.80524238 32.60216713 0.17813044 27.67757346 0 23 C0 21.68 0 20.36 0 19 C-0.33 18.67 -0.66 18.34 -1 18 C-1.09823996 16.52351124 -1.12973519 15.04224583 -1.125 13.5625 C-1.12757813 12.75941406 -1.13015625 11.95632813 -1.1328125 11.12890625 C-1 9 -1 9 0 7 C0.04022391 4.6670134 0.04320247 2.33293334 0 0 Z " fill="#F5DDDC" transform="translate(305,245)"/>
<path d="M0 0 C0.66 0.33 1.32 0.66 2 1 C2.10806144 3.91765891 2.18732877 6.83131125 2.25 9.75 C2.30027344 10.9875 2.30027344 10.9875 2.3515625 12.25 C2.45019334 18.36511196 2.45019334 18.36511196 0.171875 21.578125 C-2 23 -2 23 -5 23 C-6.74056128 17.06161445 -7.97422731 12.62053212 -4.84765625 6.88671875 C-1.62069954 1.62069954 -1.62069954 1.62069954 0 0 Z " fill="#FCEBE8" transform="translate(228,243)"/>
<path d="M0 0 C0.66 0.99 1.32 1.98 2 3 C1.29875 3.78375 0.5975 4.5675 -0.125 5.375 C-2.94956632 8.76131481 -5.10551376 12.41380653 -7.32421875 16.21484375 C-9.79722298 20.32498832 -12.50432122 24.26997485 -15.19140625 28.2421875 C-16.60820596 30.40257756 -17.86900644 32.52795868 -19.0625 34.8125 C-21.46437675 38.76397465 -24.30784967 42.18163003 -28 45 C-28.99 45 -29.98 45 -31 45 C-31 44.01 -31 43.02 -31 42 C-29.515 41.505 -29.515 41.505 -28 41 C-23.06206307 35.16981209 -19.40888053 28.31845254 -15.640625 21.70703125 C-13.6902296 18.48887884 -11.4665183 15.82924158 -9 13 C-8.67 12.01 -8.34 11.02 -8 10 C-7.34 9.67 -6.68 9.34 -6 9 C-4.97388051 7.34928604 -3.97691857 5.68029994 -3 4 C-2.01755155 2.65368175 -1.02323436 1.31558703 0 0 Z " fill="#F2CDCE" transform="translate(221,222)"/>
<path d="M0 0 C2.90783477 3.53094222 5.71858548 7.02864881 8 11 C7.63154179 14.70026115 5.63214207 17.38444213 3.625 20.4375 C1.80970309 23.21451804 0.02515345 25.95527593 -1.6015625 28.84765625 C-2.06304687 29.55792969 -2.52453125 30.26820313 -3 31 C-3.66 31 -4.32 31 -5 31 C-5.0928125 31.55171875 -5.185625 32.1034375 -5.28125 32.671875 C-6.19675534 35.6373162 -7.70028805 37.72745292 -9.5 40.25 C-10.1290625 41.14203125 -10.758125 42.0340625 -11.40625 42.953125 C-11.9321875 43.62859375 -12.458125 44.3040625 -13 45 C-13.33 45 -13.66 45 -14 45 C-13.67 42.69 -13.34 40.38 -13 38 C-12.01 38 -11.02 38 -10 38 C-9.505 35.03 -9.505 35.03 -9 32 C-8.34 32 -7.68 32 -7 32 C-6.67 31.34 -6.34 30.68 -6 30 C-5.34 30 -4.68 30 -4 30 C-4 28.02 -4 26.04 -4 24 C-2.68 23.67 -1.36 23.34 0 23 C0.103125 22.175 0.20625 21.35 0.3125 20.5 C1.11646056 16.40710988 2.46352158 12.87459775 4 9 C3.34 9 2.68 9 2 9 C2 8.01 2 7.02 2 6 C1.01 6 0.02 6 -1 6 C-0.67 4.02 -0.34 2.04 0 0 Z " fill="#B4565C" transform="translate(190,223)"/>
<path d="M0 0 C4.27662846 3.73437653 6.93207175 8.40246175 9.875 13.1875 C10.89206304 14.82754666 11.91029004 16.46687207 12.9296875 18.10546875 C13.42952148 18.91161621 13.92935547 19.71776367 14.44433594 20.54833984 C16.51696363 23.81471262 18.69901786 27.00190803 20.90283203 30.1809082 C22 32 22 32 22 34 C21.01 34 20.02 34 19 34 C15 27.25 15 27.25 15 25 C14.360625 24.79375 13.72125 24.5875 13.0625 24.375 C12.0415625 23.694375 12.0415625 23.694375 11 23 C10.66666667 21 10.33333333 19 10 17 C9.34 16.67 8.68 16.34 8 16 C7.34 15.67 6.68 15.34 6 15 C5.25 11.875 5.25 11.875 5 9 C3.68 8.67 2.36 8.34 1 8 C0.67 5.36 0.34 2.72 0 0 Z " fill="#BB4952" transform="translate(338,252)"/>
<path d="M0 0 C0 0.66 0 1.32 0 2 C-1.03125 2.33 -2.0625 2.66 -3.125 3 C-7.9492514 5.04102944 -10.17447368 8.76982985 -13 13 C-13.53753906 13.66644531 -14.07507813 14.33289063 -14.62890625 15.01953125 C-16.59234013 17.85560241 -16.67505142 20.62053475 -17 24 C-17.66 23.67 -18.32 23.34 -19 23 C-19 22.34 -19 21.68 -19 21 C-20.32 21 -21.64 21 -23 21 C-21.6558353 16.96750591 -20.01708485 14.93327694 -17 12 C-15.44746974 9.99515778 -13.95128892 7.95655578 -12.46484375 5.90234375 C-8.78266397 1.12041961 -6.12309354 -0.16548901 0 0 Z " fill="#F4CFCE" transform="translate(254,213)"/>
<path d="M0 0 C0.33 0 0.66 0 1 0 C1.125 5.75 1.125 5.75 0 8 C-0.66 8 -1.32 8 -2 8 C-1.67 9.32 -1.34 10.64 -1 12 C4.94 11.67 10.88 11.34 17 11 C17 9.02 17 7.04 17 5 C17.66 5 18.32 5 19 5 C18.25 11.75 18.25 11.75 16 14 C13.66162109 14.22705078 13.66162109 14.22705078 10.7734375 14.1953125 C9.2265625 14.18564453 9.2265625 14.18564453 7.6484375 14.17578125 C6.56820312 14.15902344 5.48796875 14.14226562 4.375 14.125 C3.28703125 14.11597656 2.1990625 14.10695313 1.078125 14.09765625 C-1.61480152 14.07403409 -4.30729255 14.04109556 -7 14 C-6.30210029 10.04509778 -5.29186127 7.50959699 -3 4.1875 C-2.46375 3.39730469 -1.9275 2.60710937 -1.375 1.79296875 C-0.694375 0.90544922 -0.694375 0.90544922 0 0 Z " fill="#B55E61" transform="translate(178,285)"/>
<path d="M0 0 C4.2037118 3.74925647 6.13604378 6.80054319 8 12 C8 12.66 8 13.32 8 14 C8.66 14.33 9.32 14.66 10 15 C14.18294227 18.46174533 16.79600447 23.09520667 19 28 C19 28.99 19 29.98 19 31 C25.27 31 31.54 31 38 31 C38 31.33 38 31.66 38 32 C31.40575373 33.07077768 24.48549695 33.98121263 18 32 C13.20191912 28.31163734 10.71627498 22.61633605 8.140625 17.27539062 C6.4329924 13.86889751 4.33948467 10.74312937 2.25 7.5625 C0.265625 4.44140625 0.265625 4.44140625 -1 2 C-0.67 1.34 -0.34 0.68 0 0 Z " fill="#D78085" transform="translate(326,267)"/>
<path d="M0 0 C3.25694723 3.02430814 5.72350913 6.17874747 8 10 C8 10.99 8 11.98 8 13 C7.20980469 12.79503906 6.41960937 12.59007812 5.60546875 12.37890625 C-4.60689589 9.93961001 -14.53560754 9.32352599 -25 9 C-25 8.67 -25 8.34 -25 8 C-16.42 8 -7.84 8 1 8 C0.67 5.36 0.34 2.72 0 0 Z " fill="#B04E53" transform="translate(267,200)"/>
<path d="M0 0 C0.66 0 1.32 0 2 0 C2.33 1.98 2.66 3.96 3 6 C2.38769531 6.26039063 1.77539062 6.52078125 1.14453125 6.7890625 C-1.89711649 8.50656851 -2.84737082 10.39406608 -4.31640625 13.4921875 C-5.62743827 18.3018021 -4.74541252 23.13861401 -4 28 C-4.66 28 -5.32 28 -6 28 C-6.13277344 27.37351562 -6.26554688 26.74703125 -6.40234375 26.1015625 C-6.57894531 25.28429687 -6.75554687 24.46703125 -6.9375 23.625 C-7.11152344 22.81289063 -7.28554687 22.00078125 -7.46484375 21.1640625 C-7.92330693 18.970537 -7.92330693 18.970537 -9 17 C-8.67 16.67 -8.34 16.34 -8 16 C-8 15.01 -8 14.02 -8 13 C-6.50390625 10.625 -6.50390625 10.625 -4.5625 8 C-2.53912864 5.25312009 -1.08236661 3.24709982 0 0 Z " fill="#F3CBCC" transform="translate(227,238)"/>
<path d="M0 0 C6.625 0.75 6.625 0.75 10 3 C12.62531524 3.16713569 12.62531524 3.16713569 15 3 C15 3.66 15 4.32 15 5 C15.99 5.33 16.98 5.66 18 6 C18 6.66 18 7.32 18 8 C18.99 8 19.98 8 21 8 C23.1875 11 23.1875 11 25 14 C19.97311006 12.67713423 15.98948146 10.30040812 11.61328125 7.59765625 C7.81100451 5.27309543 3.91095036 3.13496324 0 1 C0 0.67 0 0.34 0 0 Z " fill="#F8BDBB" transform="translate(242,239)"/>
<path d="M0 0 C2.54425853 1.2449341 5.08534361 2.49573888 7.625 3.75 C8.33785156 4.09804688 9.05070312 4.44609375 9.78515625 4.8046875 C14.08963907 6.93718358 18.06441288 9.2438475 22 12 C21.8125 14.3125 21.8125 14.3125 21 17 C16.96551724 20 16.96551724 20 14 20 C14 19.34 14 18.68 14 18 C14.804375 17.525625 15.60875 17.05125 16.4375 16.5625 C19.2918076 15.20016328 19.2918076 15.20016328 20 12 C19.34 11.9175 18.68 11.835 18 11.75 C14.00960837 10.75240209 10.61450357 8.92833317 7 7 C7 6.34 7 5.68 7 5 C6.21625 4.9175 5.4325 4.835 4.625 4.75 C2 4 2 4 0.8359375 1.953125 C0.56007813 1.30859375 0.28421875 0.6640625 0 0 Z " fill="#BC4042" transform="translate(264,252)"/>
<path d="M0 0 C0.66 0.33 1.32 0.66 2 1 C0.84826645 3.46800047 -0.04783565 5.04783565 -2 7 C-3.69544479 11.14442059 -4.2125756 14.5359125 -4 19 C-2.35 19 -0.7 19 1 19 C0.67 19.99 0.34 20.98 0 22 C-1.65 22.33 -3.3 22.66 -5 23 C-6.74056128 17.06161445 -7.97422731 12.62053212 -4.84765625 6.88671875 C-1.62069954 1.62069954 -1.62069954 1.62069954 0 0 Z " fill="#F8DBDA" transform="translate(228,243)"/>
<path d="M0 0 C3.67768297 3.34028087 6.14403432 7.07366412 8.75 11.25 C9.16121094 11.8996875 9.57242187 12.549375 9.99609375 13.21875 C11.00205086 14.8095659 12.00167362 16.40438433 13 18 C12.01 18.66 11.02 19.32 10 20 C10 19.34 10 18.68 10 18 C9.34 18 8.68 18 8 18 C4 13.64705882 4 13.64705882 4 10 C3.34 9.401875 2.68 8.80375 2 8.1875 C0 6 0 6 -0.25 2.75 C-0.1675 1.8425 -0.085 0.935 0 0 Z " fill="#C45C64" transform="translate(254,180)"/>
<path d="M0 0 C3.94875582 1.31625194 4.54992713 3.05365398 6.6875 6.5625 C7.31011719 7.57441406 7.93273437 8.58632813 8.57421875 9.62890625 C9.04472656 10.41136719 9.51523437 11.19382812 10 12 C9.01 12.495 9.01 12.495 8 13 C8 12.34 8 11.68 8 11 C7.01 10.67 6.02 10.34 5 10 C5 9.34 5 8.68 5 8 C3.68 8 2.36 8 1 8 C0.7834375 9.299375 0.7834375 9.299375 0.5625 10.625 C0.04166667 13.75 -0.47916667 16.875 -1 20 C-1.66 19.67 -2.32 19.34 -3 19 C-2.01 12.73 -1.02 6.46 0 0 Z " fill="#AD4348" transform="translate(309,267)"/>
<path d="M0 0 C0 0.33 0 0.66 0 1 C-0.58265625 1.0093457 -1.1653125 1.01869141 -1.765625 1.02832031 C-14.37056989 1.28101378 -25.92771097 2.28145825 -38 6 C-37.01 4.35 -36.02 2.7 -35 1 C-33.35 1.33 -31.7 1.66 -30 2 C-30 1.34 -30 0.68 -30 0 C-9.46808511 -1.38297872 -9.46808511 -1.38297872 0 0 Z " fill="#9D252C" transform="translate(264,207)"/>
<path d="M0 0 C1.48550695 2.97101391 0.82306972 4.83434722 0 8 C-1.9375 10.1875 -1.9375 10.1875 -4 12 C-4.99 13.485 -4.99 13.485 -6 15 C0.6 15.33 7.2 15.66 14 16 C14 16.33 14 16.66 14 17 C6.74 17 -0.52 17 -8 17 C-8.33 16.01 -8.66 15.02 -9 14 C-7.60050651 11.49026115 -6.17371593 9.17830602 -4.5625 6.8125 C-4.12873047 6.15830078 -3.69496094 5.50410156 -3.24804688 4.83007812 C-2.17454017 3.21391967 -1.0884403 1.60613901 0 0 Z " fill="#D28386" transform="translate(142,282)"/>
<path d="M0 0 C0.66 0 1.32 0 2 0 C2 4.62 2 9.24 2 14 C1.67 14 1.34 14 1 14 C0.67 11.69 0.34 9.38 0 7 C-2.2477975 9.05233685 -3.0022242 10.00667261 -4 13 C-5.87617698 14.84499398 -7.92737609 16.3683599 -10 18 C-10 14.74536454 -9.61504234 14.03855553 -7.8828125 11.42578125 C-7.44066406 10.75869141 -6.99851563 10.09160156 -6.54296875 9.40429688 C-6.07503906 8.71400391 -5.60710937 8.02371094 -5.125 7.3125 C-4.66480469 6.61060547 -4.20460937 5.90871094 -3.73046875 5.18554688 C-2.54457558 3.41701924 -1.27793125 1.70321001 0 0 Z " fill="#A9494C" transform="translate(190,267)"/>
<path d="M0 0 C1.921875 0.33984375 1.921875 0.33984375 4 1 C5.25 3.5625 5.25 3.5625 6 6 C4 7 4 7 0 7 C-1.68512463 8.7132902 -1.68512463 8.7132902 -3.0625 10.9375 C-5.69637462 14.89879154 -5.69637462 14.89879154 -9 16 C-7.56691865 12.04093183 -5.66858051 8.71281819 -3.375 5.1875 C-2.74335938 4.21167969 -2.11171875 3.23585937 -1.4609375 2.23046875 C-0.73777344 1.12638672 -0.73777344 1.12638672 0 0 Z " fill="#C76A70" transform="translate(184,217)"/>
<path d="M0 0 C1.32 0 2.64 0 4 0 C4.12375 0.804375 4.2475 1.60875 4.375 2.4375 C4.58125 3.283125 4.7875 4.12875 5 5 C5.66 5.33 6.32 5.66 7 6 C7.40729228 8.32156597 7.74438677 10.6568787 8 13 C6.02 13.33 4.04 13.66 2 14 C2.66 13.34 3.32 12.68 4 12 C4 10.68 4 9.36 4 8 C1.03 6.35 -1.94 4.7 -5 3 C-3.68 2.34 -2.36 1.68 -1 1 C-0.67 0.67 -0.34 0.34 0 0 Z " fill="#F7C4C5" transform="translate(281,256)"/>
<path d="M0 0 C0.703125 1.58984375 0.703125 1.58984375 1 4 C-0.328125 7.12890625 -0.328125 7.12890625 -2.25 10.5625 C-2.87390625 11.69816406 -3.4978125 12.83382812 -4.140625 14.00390625 C-6.85735775 18.38149873 -6.85735775 18.38149873 -9 20 C-9.99 20 -10.98 20 -12 20 C-11.67 18.68 -11.34 17.36 -11 16 C-10.34 16 -9.68 16 -9 16 C-8.74476563 15.29488281 -8.48953125 14.58976563 -8.2265625 13.86328125 C-6.88449478 10.7303652 -5.23270133 8.04285575 -3.375 5.1875 C-2.74335938 4.21167969 -2.11171875 3.23585937 -1.4609375 2.23046875 C-0.73777344 1.12638672 -0.73777344 1.12638672 0 0 Z " fill="#B45058" transform="translate(240,189)"/>
<path d="M0 0 C1.65 0 3.3 0 5 0 C-3.16432793 6.30457214 -13.20048188 12.73349396 -23 16 C-23 15.34 -23 14.68 -23 14 C-22.34 14 -21.68 14 -21 14 C-21 13.01 -21 12.02 -21 11 C-19.02 10.67 -17.04 10.34 -15 10 C-15 9.34 -15 8.68 -15 8 C-13.56570999 7.32645501 -12.12742943 6.66140299 -10.6875 6 C-9.88699219 5.62875 -9.08648437 5.2575 -8.26171875 4.875 C-6 4 -6 4 -3 4 C-3 3.34 -3 2.68 -3 2 C-2.01 2 -1.02 2 0 2 C0 1.34 0 0.68 0 0 Z " fill="#BF3B40" transform="translate(260,279)"/>
<path d="M0 0 C4.60328861 -0.27581775 7.34179661 0.32529459 11.36328125 2.5546875 C12.33201172 3.08707031 13.30074219 3.61945313 14.29882812 4.16796875 C15.7905957 5.01294922 15.7905957 5.01294922 17.3125 5.875 C18.32634766 6.43058594 19.34019531 6.98617187 20.38476562 7.55859375 C27.85604128 11.71208256 27.85604128 11.71208256 29 14 C26.525 13.505 26.525 13.505 24 13 C24 12.34 24 11.68 24 11 C23.31550781 10.89816406 22.63101563 10.79632813 21.92578125 10.69140625 C18.41730374 9.86230008 15.44244474 8.4827768 12.1875 6.9375 C11.02605469 6.38964844 9.86460937 5.84179688 8.66796875 5.27734375 C7.78753906 4.85582031 6.90710938 4.43429688 6 4 C6 3.34 6 2.68 6 2 C4.02 2 2.04 2 0 2 C0 1.34 0 0.68 0 0 Z " fill="#C4373C" transform="translate(232,237)"/>
<path d="M0 0 C8.06870229 9.79770992 8.06870229 9.79770992 7.875 13.1875 C7 15 7 15 5 18 C4.34 18 3.68 18 3 18 C3.33 15.03 3.66 12.06 4 9 C3.34 9 2.68 9 2 9 C2 8.01 2 7.02 2 6 C1.01 6 0.02 6 -1 6 C-0.67 4.02 -0.34 2.04 0 0 Z " fill="#A94348" transform="translate(190,223)"/>
<path d="M0 0 C1.64826111 2.96687001 2.44271087 5.65626525 3 9 C-1.06727245 11.91832543 -3.84915617 12.33790436 -8.8125 12.1875 C-10.55466797 12.14689453 -10.55466797 12.14689453 -12.33203125 12.10546875 C-13.21246094 12.07066406 -14.09289062 12.03585937 -15 12 C-15.66 10.68 -16.32 9.36 -17 8 C-16.16855469 8.24169922 -16.16855469 8.24169922 -15.3203125 8.48828125 C-12.78257692 9.04795021 -10.47221447 9.1681178 -7.875 9.1875 C-7.00617188 9.20167969 -6.13734375 9.21585937 -5.2421875 9.23046875 C-2.79670274 9.21743605 -2.79670274 9.21743605 -1 7 C-0.59952556 4.67724823 -0.2602896 2.34260643 0 0 Z " fill="#F4D7D6" transform="translate(287,286)"/>
<path d="M0 0 C3.09892056 2.91987182 5.52512503 5.95081124 7.875 9.5 C8.51179688 10.4384375 9.14859375 11.376875 9.8046875 12.34375 C11 15 11 15 10.1953125 17.34375 C9.80085938 17.8903125 9.40640625 18.436875 9 19 C9 17.68 9 16.36 9 15 C8.01 15 7.02 15 6 15 C2.38539773 12.15213155 1.08446817 9.42824502 0 5 C-0.125 2.125 -0.125 2.125 0 0 Z " fill="#C04B53" transform="translate(327,235)"/>
<path d="M0 0 C1.32 1.32 2.64 2.64 4 4 C3.34 4.66 2.68 5.32 2 6 C1.01 5.67 0.02 5.34 -1 5 C-1.04125 5.7425 -1.0825 6.485 -1.125 7.25 C-2.34857383 11.09551776 -4.59346582 12.04305483 -8 14 C-8 10.37346766 -6.99610743 8.94576483 -5.125 5.875 C-4.59132813 4.98554688 -4.05765625 4.09609375 -3.5078125 3.1796875 C-2 1 -2 1 0 0 Z " fill="#BE4E53" transform="translate(315,217)"/>
<path d="M0 0 C0.66 0.33 1.32 0.66 2 1 C2 1.99 2 2.98 2 4 C2.66 4.33 3.32 4.66 4 5 C3.071875 5.12375 3.071875 5.12375 2.125 5.25 C1.42375 5.4975 0.7225 5.745 0 6 C-0.268125 6.61875 -0.53625 7.2375 -0.8125 7.875 C-2.41288439 10.73884575 -4.1774134 11.38957541 -7.125 12.75 C-8.49011719 13.39195312 -8.49011719 13.39195312 -9.8828125 14.046875 C-10.58148438 14.36140625 -11.28015625 14.6759375 -12 15 C-12.66 14.34 -13.32 13.68 -14 13 C-11.69 12.34 -9.38 11.68 -7 11 C-7 10.34 -7 9.68 -7 9 C-6.01 9 -5.02 9 -4 9 C-3.67 7.02 -3.34 5.04 -3 3 C-2.01 2.67 -1.02 2.34 0 2 C0 1.34 0 0.68 0 0 Z " fill="#CA2A30" transform="translate(278,264)"/>
<path d="M0 0 C2.41638733 2.41638733 2 2.80341913 2 6 C0.3545622 7.68762851 -1.31288577 9.3540349 -3 11 C-3.33 11.66 -3.66 12.32 -4 13 C-3.45859375 12.82597656 -2.9171875 12.65195312 -2.359375 12.47265625 C0.48751809 11.90233495 2.86718522 12.12862699 5.75 12.4375 C6.73484375 12.53933594 7.7196875 12.64117187 8.734375 12.74609375 C9.85585937 12.87177734 9.85585937 12.87177734 11 13 C11 13.33 11 13.66 11 14 C5.72 14 0.44 14 -5 14 C-5.33 12.68 -5.66 11.36 -6 10 C-5.34 10 -4.68 10 -4 10 C-3.896875 8.72125 -3.79375 7.4425 -3.6875 6.125 C-3.51171875 3.9453125 -3.51171875 3.9453125 -3 2 C-2.01 1.34 -1.02 0.68 0 0 Z " fill="#C1222A" transform="translate(182,283)"/>
<path d="M0 0 C0.66 0 1.32 0 2 0 C0.5199653 4.16259759 -1.5446929 7.58509308 -4 11.25 C-5.051875 12.83554687 -5.051875 12.83554687 -6.125 14.453125 C-8 17 -8 17 -10 18 C-9.625 15.0625 -9.625 15.0625 -9 12 C-8.34 11.67 -7.68 11.34 -7 11 C-7 10.01 -7 9.02 -7 8 C-6.01 8 -5.02 8 -4 8 C-4 6.35 -4 4.7 -4 3 C-3.01 3 -2.02 3 -1 3 C-0.67 2.01 -0.34 1.02 0 0 Z " fill="#BF4B54" transform="translate(166,280)"/>
<path d="M0 0 C2.015625 3.75 2.015625 3.75 1.875 6 C0.72196182 8.63551585 -0.81929192 10.14970223 -3 12 C-3.66 12 -4.32 12 -5 12 C-5 12.66 -5 13.32 -5 14 C-5.99 14 -6.98 14 -8 14 C-6.6744419 10.37723685 -5.05653045 7.36494652 -2.875 4.1875 C-2.33617187 3.39730469 -1.79734375 2.60710937 -1.2421875 1.79296875 C-0.83226562 1.20128906 -0.42234375 0.60960937 0 0 Z " fill="#C53941" transform="translate(172,236)"/>
<path d="M0 0 C1 2 1 2 0 6 C-6.93 6 -13.86 6 -21 6 C-20.34 4.68 -19.68 3.36 -19 2 C-18.2575 2.144375 -17.515 2.28875 -16.75 2.4375 C-11.52069483 3.22189578 -6.27072224 3.59915219 -1 4 C-0.67 2.68 -0.34 1.36 0 0 Z " fill="#B72831" transform="translate(156,292)"/>
<path d="M0 0 C0 0.33 0 0.66 0 1 C-0.9075 1.165 -1.815 1.33 -2.75 1.5 C-6.83978045 3.38759098 -7.40129954 5.15675547 -8.9453125 9.22265625 C-10 11 -10 11 -12.0546875 11.62109375 C-12.69664062 11.74613281 -13.33859375 11.87117188 -14 12 C-14.33 12.66 -14.66 13.32 -15 14 C-15 11.69 -15 9.38 -15 7 C-14.236875 6.773125 -13.47375 6.54625 -12.6875 6.3125 C-9.43124404 4.72223546 -8.68626801 3.1316406 -7 0 C-4.3333581 -1.33332095 -2.83319697 -0.67102033 0 0 Z " fill="#F4D9D8" transform="translate(213,277)"/>
<path d="M0 0 C0.33 1.32 0.66 2.64 1 4 C0.01 4.33 -0.98 4.66 -2 5 C-1.77183594 5.77085937 -1.54367187 6.54171875 -1.30859375 7.3359375 C-1.02113281 8.33882812 -0.73367188 9.34171875 -0.4375 10.375 C-0.14746094 11.37273437 0.14257812 12.37046875 0.44140625 13.3984375 C1 16 1 16 0 18 C-0.87191947 16.61518672 -1.72190384 15.21654754 -2.5625 13.8125 C-3.03816406 13.03519531 -3.51382812 12.25789062 -4.00390625 11.45703125 C-5.21686809 8.46505871 -5.01070051 7.03210154 -4 4 C-1.9375 1.6875 -1.9375 1.6875 0 0 Z " fill="#A1353C" transform="translate(307,230)"/>
<path d="M0 0 C1.5 1.3125 1.5 1.3125 3 3 C3 3.99 3 4.98 3 6 C-4.59 6 -12.18 6 -20 6 C-20.33 5.34 -20.66 4.68 -21 4 C-20.32195312 4.01160156 -19.64390625 4.02320313 -18.9453125 4.03515625 C-12.55795793 4.09708351 -6.34030324 3.77018868 0 3 C0 2.01 0 1.02 0 0 Z " fill="#C67579" transform="translate(327,293)"/>
<path d="M0 0 C4.2037118 3.74925647 6.13604378 6.80054319 8 12 C8 12.66 8 13.32 8 14 C8.66 14.33 9.32 14.66 10 15 C10.99 16.485 10.99 16.485 12 18 C11.34 18.66 10.68 19.32 10 20 C8.53983725 17.58442212 7.08181403 15.16759629 5.625 12.75 C5.2125 12.06808594 4.8 11.38617188 4.375 10.68359375 C3.97539062 10.01972656 3.57578125 9.35585938 3.1640625 8.671875 C2.79748535 8.0644043 2.4309082 7.45693359 2.05322266 6.83105469 C0.95522611 4.92215943 -0.0337281 2.97837488 -1 1 C-0.67 0.67 -0.34 0.34 0 0 Z " fill="#C66266" transform="translate(326,267)"/>
<path d="M0 0 C2.4294516 3.6441774 2.16179575 5.71241272 2 10 C1.67 9.01 1.34 8.02 1 7 C0.34 7 -0.32 7 -1 7 C-1.66 5.35 -2.32 3.7 -3 2 C-5.97 2 -8.94 2 -12 2 C-11.67 1.34 -11.34 0.68 -11 0 C-7.10725512 -1.22343411 -3.92597159 -1.04692576 0 0 Z " fill="#F5CFCF" transform="translate(266,284)"/>
<path d="M0 0 C0.66 0.99 1.32 1.98 2 3 C1.67 3.66 1.34 4.32 1 5 C0.34 5 -0.32 5 -1 5 C-1.1546875 6.1446875 -1.1546875 6.1446875 -1.3125 7.3125 C-2.04711194 10.18416484 -2.6716065 11.23042094 -5 13 C-5.66 13 -6.32 13 -7 13 C-7.33 14.32 -7.66 15.64 -8 17 C-8.66 17 -9.32 17 -10 17 C-8.51364884 12.78345644 -6.38750841 9.37521395 -3.875 5.6875 C-3.15054688 4.61886719 -2.42609375 3.55023438 -1.6796875 2.44921875 C-0.84824219 1.23685547 -0.84824219 1.23685547 0 0 Z " fill="#BB595E" transform="translate(153,265)"/>
<path d="M0 0 C0.66 1.65 1.32 3.3 2 5 C0.02 5.33 -1.96 5.66 -4 6 C-4.33 7.32 -4.66 8.64 -5 10 C-5.66 10 -6.32 10 -7 10 C-7 10.66 -7 11.32 -7 12 C-8.98 12.99 -8.98 12.99 -11 14 C-9.55362598 11.07377109 -8.05576668 8.18213061 -6.5 5.3125 C-6.0771875 4.52488281 -5.654375 3.73726562 -5.21875 2.92578125 C-3.69800301 0.52280604 -2.84295045 0 0 0 Z " fill="#BF6067" transform="translate(252,175)"/>
<path d="M0 0 C3 1 3 1 4 3 C6.52733235 3.65555119 6.52733235 3.65555119 9 4 C8.67 4.66 8.34 5.32 8 6 C4.7 6 1.4 6 -2 6 C-2 6.66 -2 7.32 -2 8 C-2.66 8 -3.32 8 -4 8 C-2.87548273 5.0280615 -1.77706209 2.66559313 0 0 Z " fill="#B01C22" transform="translate(236,201)"/>
<path d="M0 0 C3.25519625 3.02268223 5.78310719 6.14096436 8 10 C7.67 10.99 7.34 11.98 7 13 C4.03 12.505 4.03 12.505 1 12 C1.20625 11.236875 1.4125 10.47375 1.625 9.6875 C2.33391203 6.78114056 2.33391203 6.78114056 0 4 C0 2.68 0 1.36 0 0 Z " fill="#C34952" transform="translate(319,281)"/>
<path d="M0 0 C1.27094589 3.81283768 0.56479448 5.90833169 -0.3125 9.8125 C-0.70888672 11.61654297 -0.70888672 11.61654297 -1.11328125 13.45703125 C-1.92687946 16.70783995 -2.89154911 19.83922081 -4 23 C-4.33 23 -4.66 23 -5 23 C-6.38903511 17.44385955 -5.78570725 14.92763855 -2.98828125 9.99609375 C-1.55515015 7.1015088 -1.32486663 4.18369299 -1 1 C-0.67 0.67 -0.34 0.34 0 0 Z " fill="#F2AEAF" transform="translate(308,271)"/>
<path d="M0 0 C1.32 0 2.64 0 4 0 C4.33 1.32 4.66 2.64 5 4 C4.34 4 3.68 4 3 4 C2.1558062 7.97977076 1.55312735 11.97007218 1 16 C0.67 16 0.34 16 0 16 C-0.19672365 14.27185839 -0.38196799 12.54240803 -0.5625 10.8125 C-0.71912109 9.36810547 -0.71912109 9.36810547 -0.87890625 7.89453125 C-0.99758751 5.05766623 -0.67765639 2.74576329 0 0 Z " fill="#F7BABC" transform="translate(306,263)"/>
<path d="M0 0 C2.2477975 2.05233685 3.0022242 3.00667261 4 6 C1.02181366 6.88099735 -1.45292865 7.06705164 -4.546875 6.87890625 C-5.39121094 6.83056641 -6.23554688 6.78222656 -7.10546875 6.73242188 C-7.97816406 6.67634766 -8.85085938 6.62027344 -9.75 6.5625 C-10.63816406 6.51029297 -11.52632813 6.45808594 -12.44140625 6.40429688 C-14.62799196 6.27498267 -16.81407894 6.14003358 -19 6 C-19 5.67 -19 5.34 -19 5 C-13.06 4.67 -7.12 4.34 -1 4 C-0.67 2.68 -0.34 1.36 0 0 Z " fill="#B44C55" transform="translate(364,292)"/>
<path d="M0 0 C2.31 0.33 4.62 0.66 7 1 C7 1.66 7 2.32 7 3 C8.32 3.66 9.64 4.32 11 5 C11 6.65 11 8.3 11 10 C9.62437146 8.71034824 8.29233607 7.37310707 7 6 C7 5.34 7 4.68 7 4 C6.401875 4.226875 5.80375 4.45375 5.1875 4.6875 C4.465625 4.790625 3.74375 4.89375 3 5 C1.25 3.6875 1.25 3.6875 0 2 C0 1.34 0 0.68 0 0 Z " fill="#A23134" transform="translate(308,248)"/>
<path d="M0 0 C5.27315333 0.4452885 10.01770224 1.08373163 15 3 C14.01 3.33 13.02 3.66 12 4 C11.67 4.66 11.34 5.32 11 6 C11 5.34 11 4.68 11 4 C9.02 4.66 7.04 5.32 5 6 C5 5.01 5 4.02 5 3 C3.35 2.67 1.7 2.34 0 2 C0 1.34 0 0.68 0 0 Z " fill="#F5AFB0" transform="translate(258,209)"/>
<path d="M0 0 C0.33 0 0.66 0 1 0 C1.125 5.75 1.125 5.75 0 8 C-0.66 8 -1.32 8 -2 8 C-1.67 9.32 -1.34 10.64 -1 12 C-2.65 11.67 -4.3 11.34 -6 11 C-4.55007731 6.89188572 -2.54592427 3.53144334 0 0 Z " fill="#C2464C" transform="translate(178,285)"/>
<path d="M0 0 C0.33 0 0.66 0 1 0 C1 1.98 1 3.96 1 6 C1.99 6 2.98 6 4 6 C4.33 6.66 4.66 7.32 5 8 C7.32156597 8.40729228 9.6568787 8.74438677 12 9 C12 9.33 12 9.66 12 10 C10.56260487 10.02712066 9.12506137 10.04645067 7.6875 10.0625 C6.48673828 10.07990234 6.48673828 10.07990234 5.26171875 10.09765625 C3 10 3 10 0 9 C-1.36623674 6.26752652 -1.128426 4.01801098 -1 1 C-0.67 0.67 -0.34 0.34 0 0 Z " fill="#A03137" transform="translate(305,288)"/>
<path d="M0 0 C0.99 0.33 1.98 0.66 3 1 C1.61964507 3.85059343 0.10703513 6.55880904 -1.5625 9.25 C-1.99691406 9.95640625 -2.43132812 10.6628125 -2.87890625 11.390625 C-3.43384766 12.18726563 -3.43384766 12.18726563 -4 13 C-4.33 13 -4.66 13 -5 13 C-4.67 10.69 -4.34 8.38 -4 6 C-3.01 6 -2.02 6 -1 6 C-0.67 4.02 -0.34 2.04 0 0 Z " fill="#BC4F54" transform="translate(181,255)"/>
<path d="M0 0 C0.66 0 1.32 0 2 0 C2.33 2.97 2.66 5.94 3 9 C1.68 9 0.36 9 -1 9 C-2.75 7 -2.75 7 -4 5 C-3.67 4.34 -3.34 3.68 -3 3 C-2.01 3.33 -1.02 3.66 0 4 C0 2.68 0 1.36 0 0 Z " fill="#B11E26" transform="translate(265,199)"/>
<path d="M0 0 C3.08824987 4.63237481 4.21070452 9.03342444 3.625 14.5 C3.41875 15.325 3.2125 16.15 3 17 C2.34 17 1.68 17 1 17 C0.83069605 15.10440036 0.66467136 13.20850769 0.5 11.3125 C0.4071875 10.25675781 0.314375 9.20101563 0.21875 8.11328125 C0.0276585 5.39363975 -0.04043935 2.72460144 0 0 Z " fill="#A02229" transform="translate(192,279)"/>
<path d="M0 0 C2.9156164 3.54039134 5.50127818 7.1626772 8 11 C7.67 11.66 7.34 12.32 7 13 C6.34 11.68 5.68 10.36 5 9 C4.34 9 3.68 9 3 9 C3 8.34 3 7.68 3 7 C1.68 6.34 0.36 5.68 -1 5 C-0.67 3.35 -0.34 1.7 0 0 Z " fill="#BB575F" transform="translate(345,262)"/>
<path d="M0 0 C1.875 0.1875 1.875 0.1875 4 1 C5.25 3.5625 5.25 3.5625 6 6 C5.01 6.495 5.01 6.495 4 7 C1.375 6.0625 1.375 6.0625 -1 5 C-0.67 3.35 -0.34 1.7 0 0 Z " fill="#BD5961" transform="translate(184,217)"/>
<path d="M0 0 C0.66 0 1.32 0 2 0 C2.6796875 1.703125 2.6796875 1.703125 3 4 C1.8203125 6.359375 1.8203125 6.359375 0.125 8.75 C-0.42929688 9.54921875 -0.98359375 10.3484375 -1.5546875 11.171875 C-2.03164062 11.77515625 -2.50859375 12.3784375 -3 13 C-3.33 13 -3.66 13 -4 13 C-4 11.02 -4 9.04 -4 7 C-2.68 6.67 -1.36 6.34 0 6 C0 4.02 0 2.04 0 0 Z " fill="#C45457" transform="translate(173,266)"/>
<path d="M0 0 C1.65 0.33 3.3 0.66 5 1 C3 3 3 3 -0.0625 3.875 C-1.5165625 4.431875 -1.5165625 4.431875 -3 5 C-3.96877057 7.03243548 -3.96877057 7.03243548 -4 9 C-4.66 9 -5.32 9 -6 9 C-5.67 7.35 -5.34 5.7 -5 4 C-4.0409375 3.8453125 -4.0409375 3.8453125 -3.0625 3.6875 C-2.381875 3.460625 -1.70125 3.23375 -1 3 C-0.67 2.01 -0.34 1.02 0 0 Z " fill="#C03038" transform="translate(179,229)"/>
<path d="M0 0 C0.721875 0.103125 1.44375 0.20625 2.1875 0.3125 C2.1875 0.9725 2.1875 1.6325 2.1875 2.3125 C1.135625 2.704375 0.08375 3.09625 -1 3.5 C-4.72908932 5.07652557 -7.10913487 7.28145425 -9.8125 10.3125 C-8.22343411 5.25638126 -5.63322205 0.62591356 0 0 Z " fill="#F7D6D7" transform="translate(251.8125,212.6875)"/>
<path d="M0 0 C0 0.66 0 1.32 0 2 C-0.66 2 -1.32 2 -2 2 C-2.33 2.99 -2.66 3.98 -3 5 C-6.80269732 6.6900877 -9.05272168 7.19873962 -13 6 C-11.21118264 4.99491199 -9.41885304 3.99607264 -7.625 3 C-6.62726563 2.443125 -5.62953125 1.88625 -4.6015625 1.3125 C-2 0 -2 0 0 0 Z " fill="#F7A8AA" transform="translate(274,275)"/>
<path d="M0 0 C2.31 1.98 4.62 3.96 7 6 C5.515 8.475 5.515 8.475 4 11 C0.85041169 7.57653445 0.43820891 4.55737263 0 0 Z " fill="#D9A6A5" transform="translate(306,247)"/>
<path d="M0 0 C5.40694067 0.43255525 8.75366122 1.58221513 13 5 C13 5.66 13 6.32 13 7 C8.1725201 5.58707905 4.2837641 3.57025846 0 1 C0 0.67 0 0.34 0 0 Z " fill="#F7ABAA" transform="translate(242,239)"/>
<path d="M0 0 C5.97897503 -0.74737188 9.32379721 1.6768102 14 5 C13.67 5.66 13.34 6.32 13 7 C10.69 6.01 8.38 5.02 6 4 C6 3.34 6 2.68 6 2 C4.02 2 2.04 2 0 2 C0 1.34 0 0.68 0 0 Z " fill="#BB3236" transform="translate(232,237)"/>
<path d="M0 0 C0.66 0 1.32 0 2 0 C0.6302836 3.99500618 -1.25722422 6.80009492 -4 10 C-4 7.69 -4 5.38 -4 3 C-3.01 3 -2.02 3 -1 3 C-0.67 2.01 -0.34 1.02 0 0 Z " fill="#C75F66" transform="translate(166,280)"/>
<path d="M0 0 C1.13643966 3.40931897 0.86747764 4.00335456 -0.4375 7.1875 C-0.72496094 7.90292969 -1.01242188 8.61835938 -1.30859375 9.35546875 C-1.53675781 9.89816406 -1.76492187 10.44085938 -2 11 C-2.66 10.67 -3.32 10.34 -4 10 C-4 5.28093812 -2.71245796 3.72962969 0 0 Z " fill="#C6555F" transform="translate(163,250)"/>
<path d="M0 0 C2.60608273 2.5162178 4.89381685 5.05134359 7 8 C6.67 8.66 6.34 9.32 6 10 C5.34 10 4.68 10 4 10 C1.46093936 7.38626111 0.07743148 5.87110419 -0.25 2.1875 C-0.1675 1.465625 -0.085 0.74375 0 0 Z " fill="#C1555A" transform="translate(319,223)"/>
<path d="M0 0 C0.33 0.66 0.66 1.32 1 2 C1.66 2 2.32 2 3 2 C3 4.31 3 6.62 3 9 C2.01 8.67 1.02 8.34 0 8 C-0.33 7.01 -0.66 6.02 -1 5 C-1.66 4.34 -2.32 3.68 -3 3 C-2.01 2.01 -1.02 1.02 0 0 Z " fill="#EFCACB" transform="translate(275,212)"/>
<path d="M0 0 C0.66 0 1.32 0 2 0 C2.33 0.66 2.66 1.32 3 2 C3.639375 2.28875 4.27875 2.5775 4.9375 2.875 C7.42001234 4.22909764 7.96871397 5.42178493 9 8 C8.01 8.33 7.02 8.66 6 9 C6 8.34 6 7.68 6 7 C5.34 7 4.68 7 4 7 C0 2.52941176 0 2.52941176 0 0 Z " fill="#BE3F48" transform="translate(258,191)"/>
<path d="M0 0 C0.33 0.66 0.66 1.32 1 2 C-1.3125 4.5 -1.3125 4.5 -4 7 C-4.99 7 -5.98 7 -7 7 C-4.78071806 4.09197539 -3.07030857 2.04687238 0 0 Z " fill="#F1C7C9" transform="translate(205,277)"/>
<path d="M0 0 C0.99 0.33 1.98 0.66 3 1 C4.1875 3.5625 4.1875 3.5625 5 6 C3.35 6.33 1.7 6.66 0 7 C0 4.69 0 2.38 0 0 Z " fill="#9C464C" transform="translate(309,267)"/>
<path d="M0 0 C3.3 1.65 6.6 3.3 10 5 C10 5.66 10 6.32 10 7 C9.01 7 8.02 7 7 7 C7 6.34 7 5.68 7 5 C6.21625 4.9175 5.4325 4.835 4.625 4.75 C3.75875 4.5025 2.8925 4.255 2 4 C1.34 2.68 0.68 1.36 0 0 Z " fill="#BD3539" transform="translate(264,252)"/>
<path d="M0 0 C4 4.625 4 4.625 4 8 C3.01 8.495 3.01 8.495 2 9 C2 8.01 2 7.02 2 6 C1.01 6 0.02 6 -1 6 C-0.67 4.02 -0.34 2.04 0 0 Z " fill="#BE4D53" transform="translate(190,223)"/>
<path d="M0 0 C1.32 1.32 2.64 2.64 4 4 C3.34 4.66 2.68 5.32 2 6 C-1.125 5.625 -1.125 5.625 -4 5 C-2.25 1.125 -2.25 1.125 0 0 Z " fill="#C16971" transform="translate(315,217)"/>
<path d="M0 0 C0.33 0.66 0.66 1.32 1 2 C1.99 2.33 2.98 2.66 4 3 C3.34 3 2.68 3 2 3 C2 3.99 2 4.98 2 6 C1.34 6 0.68 6 0 6 C-0.33 6.99 -0.66 7.98 -1 9 C-0.979375 8.236875 -0.95875 7.47375 -0.9375 6.6875 C-0.87057159 3.89814214 -0.87057159 3.89814214 -2 1 C-1.34 0.67 -0.68 0.34 0 0 Z " fill="#B21E25" transform="translate(188,240)"/>
<path d="M0 0 C-4.95 2.475 -4.95 2.475 -10 5 C-10 4.34 -10 3.68 -10 3 C-9.34 3 -8.68 3 -8 3 C-8 2.01 -8 1.02 -8 0 C-4.63458162 -1.08174162 -3.70152678 -0.92538169 0 0 Z " fill="#BF4349" transform="translate(247,290)"/>
<path d="M0 0 C1.65 1.65 3.3 3.3 5 5 C4.67 5.99 4.34 6.98 4 8 C1.47411298 5.63707344 0.11179163 4.33537489 -1 1 C-0.67 0.67 -0.34 0.34 0 0 Z " fill="#C05158" transform="translate(326,267)"/>
<path d="M0 0 C1.32 0 2.64 0 4 0 C4.33 1.32 4.66 2.64 5 4 C3.68 4.33 2.36 4.66 1 5 C0.34 3.68 -0.32 2.36 -1 1 C-0.67 0.67 -0.34 0.34 0 0 Z " fill="#F1CBCB" transform="translate(306,263)"/>
<path d="M0 0 C0.99 0.33 1.98 0.66 3 1 C2.34 2.32 1.68 3.64 1 5 C-0.98 5 -2.96 5 -5 5 C-3.35 3.35 -1.7 1.7 0 0 Z " fill="#F1E7E8" transform="translate(218,216)"/>
<path d="M0 0 C0.7425 0.61875 1.485 1.2375 2.25 1.875 C4.48801188 3.60437281 6.43739987 4.86106661 9 6 C6.75 6.75 6.75 6.75 4 7 C1.6875 5.25 1.6875 5.25 0 3 C0 2.01 0 1.02 0 0 Z " fill="#F5D8D8" transform="translate(220,288)"/>
<path d="M0 0 C-1.37154504 2.95409701 -2.98863724 5.44008376 -5 8 C-5 5.69 -5 3.38 -5 1 C-2 0 -2 0 0 0 Z " fill="#F5D0D1" transform="translate(203,283)"/>
<path d="M0 0 C0.99 0.33 1.98 0.66 3 1 C2.67 2.65 2.34 4.3 2 6 C1.01 6 0.02 6 -1 6 C-0.67 4.02 -0.34 2.04 0 0 Z " fill="#B11B1E" transform="translate(311,280)"/>
<path d="M0 0 C2 1 2 1 2.8515625 3.28515625 C3.10679687 4.20167969 3.36203125 5.11820313 3.625 6.0625 C3.88539063 6.98160156 4.14578125 7.90070313 4.4140625 8.84765625 C4.60742188 9.55792969 4.80078125 10.26820313 5 11 C4.01 11 3.02 11 2 11 C2.33 9.68 2.66 8.36 3 7 C2.34 7 1.68 7 1 7 C0.67 4.69 0.34 2.38 0 0 Z " fill="#F5D0D1" transform="translate(300,234)"/>
<path d="M0 0 C0.99 0.33 1.98 0.66 3 1 C1.95125002 3.62187494 1.35068687 4.79371361 -1.125 6.25 C-1.74375 6.4975 -2.3625 6.745 -3 7 C-1.125 1.125 -1.125 1.125 0 0 Z " fill="#F3CAC8" transform="translate(226,214)"/>
<path d="M0 0 C0.66 0.33 1.32 0.66 2 1 C2 3.31 2 5.62 2 8 C1.67 7.34 1.34 6.68 1 6 C0.34 6 -0.32 6 -1 6 C-1.33 5.01 -1.66 4.02 -2 3 C-1.34 2.01 -0.68 1.02 0 0 Z " fill="#A71C21" transform="translate(189,273)"/>
<path d="M0 0 C1.0326802 2.78823655 1.04509293 3.8677274 0.0625 6.75 C-0.288125 7.4925 -0.63875 8.235 -1 9 C-1.99 8.67 -2.98 8.34 -4 8 C-2.87548273 5.0280615 -1.77706209 2.66559313 0 0 Z " fill="#C8666D" transform="translate(172,236)"/>
<path d="M0 0 C0.99 0.33 1.98 0.66 3 1 C3 2.65 3 4.3 3 6 C2.01 6 1.02 6 0 6 C-1.125 2.25 -1.125 2.25 0 0 Z " fill="#C3333C" transform="translate(324,232)"/>
<path d="M0 0 C1.43088528 2.86177057 0.59991697 4.93375773 0 8 C-1.32 7.34 -2.64 6.68 -4 6 C-2.68 4.02 -1.36 2.04 0 0 Z " fill="#C25A60" transform="translate(142,282)"/>
<path d="M0 0 C2.16874252 0.50603992 3.99967627 0.99983813 6 2 C6 3.65 6 5.3 6 7 C4.62437146 5.71034824 3.29233607 4.37310707 2 3 C2 2.34 2 1.68 2 1 C1.34 0.67 0.68 0.34 0 0 Z " fill="#C05C64" transform="translate(313,251)"/>
</svg>
